<svg width="127.06mm" height="34.363mm" version="1.1" viewBox="0 0 127.06 34.363" xmlns="http://www.w3.org/2000/svg">
 <g transform="translate(-37.009 -124.85)">
  <g transform="matrix(.35278 0 0 -.35278 61.483 139.56)">
   <path d="m0 0h-30.267c-0.781 0-1.415-0.634-1.415-1.415v-14.798c0-0.781 0.634-1.416 1.415-1.416h11.807v-18.386s-2.651-0.903-9.981-0.903c-8.647 0-20.727 3.159-20.727 29.723 0 26.569 12.579 30.065 24.388 30.065 10.222 0 14.626-1.8 17.428-2.667 0.881-0.269 1.695 0.607 1.695 1.388l3.377 14.298c0 0.366-0.124 0.806-0.54 1.105-1.138 0.812-8.081 4.697-25.621 4.697-20.205 0-40.932-8.597-40.932-49.922 0-41.326 23.73-47.484 43.727-47.484 16.557 0 26.601 7.075 26.601 7.075 0.414 0.228 0.459 0.807 0.459 1.072v46.153c0 0.781-0.633 1.415-1.414 1.415" fill="currentColor"/>
  </g>
  <g transform="matrix(.35278 0 0 -.35278 116.51 126.6)">
   <path d="m0 0c0 0.787-0.624 1.423-1.405 1.423h-17.042c-0.779 0-1.411-0.636-1.411-1.423 0-4e-3 4e-3 -32.935 4e-3 -32.935h-26.564v32.935c0 0.787-0.627 1.423-1.407 1.423h-17.041c-0.775 0-1.407-0.636-1.407-1.423v-89.178c0-0.786 0.632-1.426 1.407-1.426h17.041c0.78 0 1.407 0.64 1.407 1.426v38.145h26.564s-0.046-38.142-0.046-38.145c0-0.786 0.631-1.426 1.412-1.426h17.082c0.78 0 1.404 0.64 1.406 1.426z" fill="currentColor"/>
  </g>
  <g transform="matrix(.35278 0 0 -.35278 72.828 130.72)">
   <path d="m0 0c0 6.136-4.92 11.095-10.99 11.095-6.064 0-10.987-4.959-10.987-11.095 0-6.13 4.923-11.103 10.987-11.103 6.07 0 10.99 4.973 10.99 11.103" fill="currentColor"/>
  </g>
  <g transform="matrix(.35278 0 0 -.35278 72.398 151.42)">
   <path d="m0 0v41.165c0 0.781-0.63 1.42-1.41 1.42h-16.988c-0.78 0-1.477-0.803-1.477-1.585v-58.977c0-1.732 1.08-2.248 2.478-2.248h15.306c1.679 0 2.091 0.825 2.091 2.276z" fill="currentColor"/>
  </g>
  <g transform="matrix(.35278 0 0 -.35278 139.36 136.44)">
   <path d="m0 0h-16.911c-0.776 0-1.407-0.639-1.407-1.426v-43.726s-4.297-3.144-10.395-3.144-7.716 2.767-7.716 8.738v38.132c0 0.787-0.63 1.426-1.406 1.426h-17.164c-0.774 0-1.409-0.639-1.409-1.426v-41.019c0-17.735 9.884-22.074 23.481-22.074 11.156 0 20.15 6.163 20.15 6.163s0.427-3.248 0.622-3.633c0.193-0.384 0.698-0.772 1.244-0.772l10.919 0.048c0.774 0 1.409 0.64 1.409 1.424l-6e-3 59.863c0 0.787-0.632 1.426-1.411 1.426" fill="currentColor"/>
  </g>
  <g transform="matrix(.35278 0 0 -.35278 153.31 153.46)">
   <path d="m0 0c-5.866 0.179-9.845 2.84-9.845 2.84v28.241s3.925 2.406 8.741 2.836c6.09 0.545 11.958-1.294 11.958-15.822 0-15.319-2.648-18.343-10.854-18.095m6.67 50.245c-9.605 0-16.138-4.286-16.138-4.286v30.198c0 0.787-0.63 1.423-1.406 1.423h-17.091c-0.777 0-1.408-0.636-1.408-1.423v-89.178c0-0.787 0.631-1.427 1.41-1.427h11.858c0.534 0 0.938 0.276 1.237 0.758 0.295 0.479 0.72 4.111 0.72 4.111s6.988-6.622 20.217-6.622c15.532 0 24.439 7.878 24.439 35.366s-14.226 31.08-23.838 31.08" fill="currentColor"/>
  </g>
  <g transform="matrix(.35278 0 0 -.35278 89.677 136.39)">
   <path d="m0 0h-12.784s-0.019 16.885-0.019 16.889c0 0.639-0.329 0.959-1.069 0.959h-17.42c-0.677 0-1.041-0.299-1.041-0.95v-17.452s-8.73-2.107-9.32-2.278c-0.588-0.17-1.021-0.712-1.021-1.359v-10.967c0-0.788 0.63-1.425 1.409-1.425h8.932v-26.384c0-19.596 13.746-21.521 23.021-21.521 4.239 0 9.309 1.361 10.146 1.67 0.506 0.186 0.801 0.71 0.801 1.278l0.014 12.065c0 0.787-0.665 1.424-1.413 1.424-0.745 0-2.651-0.303-4.613-0.303-6.279 0-8.407 2.919-8.407 6.698 0 3.777-1e-3 25.073-1e-3 25.073h12.785c0.779 0 1.411 0.637 1.411 1.425v13.737c0 0.787-0.632 1.421-1.411 1.421" fill="currentColor"/>
  </g>
 </g>
</svg>
