<svg width="22" height="22" viewBox="0 0 22 22" fill="none" xmlns="http://www.w3.org/2000/svg">
<path d="M21.9944 22V21.9991H21.9999V13.9306C21.9999 9.98342 21.1502 6.94283 16.5357 6.94283C14.3173 6.94283 12.8287 8.16017 12.2209 9.31425H12.1567V7.31133H7.78149V21.9991H12.3373V14.7263C12.3373 12.8113 12.7003 10.9597 15.0717 10.9597C17.4083 10.9597 17.4432 13.145 17.4432 14.8491V22H21.9944Z" fill="currentColor"/>
<path d="M0.363037 7.31218H4.92437V21.9999H0.363037V7.31218Z" fill="currentColor"/>
<path d="M2.64183 0C1.18342 0 0 1.18342 0 2.64183C0 4.10025 1.18342 5.30842 2.64183 5.30842C4.10025 5.30842 5.28367 4.10025 5.28367 2.64183C5.28275 1.18342 4.09933 0 2.64183 0V0Z" fill="currentColor"/>
</svg>
