<svg width="27" height="23" viewBox="0 0 27 23" fill="none" xmlns="http://www.w3.org/2000/svg">
<path d="M24.246 6.71762C24.246 6.47349 24.237 6.23612 24.2257 6.00212C25.3237 5.22249 26.2474 4.24937 27 3.12887V3.12774C25.9954 3.56762 24.9266 3.86012 23.8106 4.00187C24.9581 3.31674 25.8345 2.24012 26.2463 0.942992C25.1764 1.58087 23.9951 2.03087 22.7362 2.28287C21.7204 1.20062 20.2725 0.531242 18.693 0.531242C15.6285 0.531242 13.1614 3.01862 13.1614 6.06737C13.1614 6.50612 13.1985 6.92799 13.2896 7.32962C8.68837 7.10462 4.61587 4.89962 1.87987 1.53924C1.40288 2.36837 1.12162 3.31674 1.12162 4.33712C1.12162 6.25412 2.10825 7.95287 3.58088 8.93724C2.691 8.92037 1.81912 8.66162 1.08 8.25549V8.31624C1.08 11.0061 2.99813 13.2404 5.51475 13.7556C4.66875 13.9874 3.627 13.9784 3.01612 13.8434C3.73275 16.0349 5.769 17.647 8.18775 17.6999C6.3045 19.1725 3.91275 20.0601 1.32413 20.0601C0.87075 20.0601 0.435375 20.0399 0 19.9847C2.4525 21.5654 5.35725 22.4687 8.4915 22.4687C18.6772 22.4687 24.246 14.0312 24.246 6.71762Z" fill="currentColor"/>
</svg>
